<svg width="137" height="30" viewBox="0 0 137 30" fill="none" xmlns="http://www.w3.org/2000/svg">
<path d="M28 8.70905L26.7593 12.9708L25.9672 12.1805L21.7839 16.1319L18.7806 18.9683L16.3251 21.2874L14.0129 18.9683L12.9229 17.8747L11.5739 16.5208L11.1695 16.1158L8.95471 13.8931L8.10371 14.7154L7.81883 14.9902L6.46975 16.296L5.11698 17.6036L3.72379 18.9505L3.70539 18.9683L1.71118 20.8949L0 22.5504L2.72392 18.9683L6.46975 14.0393L7.81883 12.2661L8.98595 10.7302L11.5739 13.3276L12.6803 14.4389L12.9229 14.6816L16.3747 18.1423L16.6798 17.8534L18.0289 16.5796L18.6281 16.0142L20.3723 14.3658L21.7839 13.0333L24.3718 10.5893L23.5778 9.79899L28 8.70905Z" fill="#2DFF34"/>
<path d="M6.46975 8.70905V14.0393L2.72392 18.9683H2.71289V8.70905H6.46975Z" fill="#FFCE5F"/>
<path d="M27.1545 16.0142C27.1545 23.726 20.6921 30 12.7446 30C8.69002 30 4.91844 28.3463 2.25154 25.5991C1.72587 25.0586 1.24431 24.477 0.810547 23.8562L2.46658 22.2561L5.12983 19.6855L5.87054 18.9683L6.46973 18.3904L7.81881 17.0845L8.11656 16.7973L8.82052 16.1159L8.93446 16.0035L8.9363 16.0053L8.99878 15.9446L11.5738 18.5277L12.6931 19.6516L16.3857 23.3568L18.639 21.2268L20.3851 19.5802L21.0321 18.9684L21.7838 18.2584L24.3827 15.8019L16.3378 26.5018L11.1804 21.3303L8.96566 19.1075L8.11652 19.9281L5.12979 22.8162L3.87444 24.0311C6.11864 26.3698 9.31122 27.7791 12.7446 27.7791C19.4294 27.7791 24.8662 22.5023 24.8662 16.0142H27.1545V16.0142Z" fill="#00B7FF"/>
<path d="M11.5734 5.60332V13.3276L8.98548 10.7302L7.81836 12.2662V5.60332H11.5734Z" fill="#FFCE5F"/>
<path d="M16.6797 3.08618V17.8534L16.3746 18.1424L12.9229 14.6816V3.08618H16.6797Z" fill="#FFCE5F"/>
<path d="M21.7843 0V13.0333L20.3727 14.3658L18.6285 16.0142L18.0293 16.5797V0H21.7843Z" fill="#FFCE5F"/>
<path d="M34.6569 22.856C35.3609 20.712 36.0329 18.624 36.6729 16.592C36.9449 15.76 37.2249 14.872 37.5129 13.928C37.8009 12.984 38.0889 12.04 38.3769 11.096C38.6649 10.136 38.9369 9.216 39.1929 8.336C39.4489 7.456 39.6649 6.672 39.8409 5.984C40.7209 5.984 41.5529 5.936 42.3369 5.84C42.7369 5.792 43.1449 5.744 43.5609 5.696C43.9929 5.648 44.4329 5.608 44.8809 5.576L44.7369 6.752C44.7049 6.976 44.6729 7.208 44.6409 7.448C44.6089 7.672 44.5769 7.904 44.5449 8.144C44.5129 8.384 44.4729 8.632 44.4249 8.888C44.3769 9.128 44.3369 9.376 44.3049 9.632C44.2409 10.128 44.1449 10.824 44.0169 11.72C43.8889 12.6 43.7369 13.56 43.5609 14.6H43.8729C44.3369 13.384 44.7209 12.376 45.0249 11.576C45.3289 10.76 45.5769 10.096 45.7689 9.584C46.0409 8.832 46.3369 8.072 46.6569 7.304C46.9769 6.536 47.2409 5.944 47.4489 5.528C47.8329 5.496 48.2889 5.448 48.8169 5.384C49.3609 5.304 49.9049 5.216 50.4489 5.12C51.0089 5.024 51.4889 4.944 51.8889 4.88C51.6649 6.224 51.4569 7.584 51.2649 8.96C51.0889 10.32 50.9289 11.624 50.7849 12.872C50.6569 14.104 50.5449 15.216 50.4489 16.208C50.3529 17.2 50.2649 18.184 50.1849 19.16C50.1049 20.12 50.0249 21.072 49.9449 22.016L45.7689 22.76C45.7689 22.728 45.7929 22.368 45.8409 21.68C45.8889 20.992 45.9689 20.136 46.0809 19.112C46.1929 18.088 46.3049 17.12 46.4169 16.208C46.5289 15.28 46.6409 14.52 46.7529 13.928H46.5369C46.1369 15.144 45.6489 16.472 45.0729 17.912C44.5129 19.352 43.9609 20.944 43.4169 22.688C42.8569 22.704 42.3769 22.728 41.9769 22.76C41.5769 22.776 41.1129 22.8 40.5849 22.832L41.3529 13.928H40.9929C40.9769 14.104 40.9049 14.448 40.7769 14.96C40.6489 15.456 40.4969 16.032 40.3209 16.688C40.1449 17.328 39.9609 17.968 39.7689 18.608C39.0489 21.12 38.6649 22.448 38.6169 22.592L34.6569 22.856ZM56.2123 22.952C56.2443 22.68 56.2763 22.416 56.3083 22.16C56.3403 21.904 56.3723 21.648 56.4043 21.392L56.5483 20.048C56.5643 19.824 56.5803 19.616 56.5963 19.424C56.6123 19.232 56.6283 19.056 56.6443 18.896H54.5563L53.5963 22.352C53.2443 22.4 52.8283 22.456 52.3483 22.52C51.8683 22.568 51.4203 22.616 51.0043 22.664C50.7483 22.696 50.4923 22.728 50.2363 22.76C49.9963 22.792 49.7483 22.824 49.4923 22.856L51.3883 16.568C51.6123 15.816 51.8683 14.96 52.1563 14C52.4443 13.04 52.7323 12.056 53.0203 11.048C53.3243 10.04 53.6043 9.096 53.8603 8.216C54.1323 7.32 54.3483 6.568 54.5083 5.96C55.5963 5.88 56.7003 5.784 57.8203 5.672C58.9563 5.56 60.0603 5.408 61.1323 5.216C61.0523 6.112 60.9723 7.128 60.8923 8.264C60.8283 9.384 60.7643 10.544 60.7003 11.744C60.6523 12.944 60.5963 14.128 60.5323 15.296C60.5003 16.4 60.4603 17.544 60.4123 18.728C60.3643 19.896 60.3163 21.096 60.2683 22.328C60.0283 22.36 59.7883 22.392 59.5483 22.424C59.3083 22.456 59.0683 22.488 58.8283 22.52C58.4283 22.584 57.9883 22.656 57.5083 22.736C57.0283 22.816 56.5963 22.888 56.2123 22.952ZM55.1323 16.496C55.2283 16.496 55.4043 16.488 55.6603 16.472C55.9323 16.456 56.1883 16.44 56.4283 16.424C56.6683 16.408 56.8123 16.4 56.8603 16.4C56.8603 16.192 56.8923 15.768 56.9563 15.128C57.0203 14.488 57.0843 13.816 57.1483 13.112C57.1803 12.696 57.2123 12.272 57.2443 11.84C57.2923 11.392 57.3403 10.936 57.3883 10.472L57.5323 8.384L57.1723 8.408L56.6203 10.472L55.1323 16.496ZM60.2351 23.024L61.4831 16.784C61.6751 15.632 61.8831 14.448 62.1071 13.232C62.3311 12.016 62.5391 10.816 62.7311 9.632C62.9391 8.448 63.0991 7.336 63.2111 6.296C64.1231 6.008 65.1071 5.8 66.1631 5.672C67.2191 5.528 68.2671 5.456 69.3071 5.456C70.5231 5.456 71.3471 5.72 71.7791 6.248C72.2271 6.776 72.4511 7.488 72.4511 8.384C72.4511 9.2 72.2591 10.024 71.8751 10.856C71.4911 11.672 70.9871 12.416 70.3631 13.088C69.7551 13.744 69.0831 14.264 68.3471 14.648C68.6351 15.288 68.9391 15.992 69.2591 16.76C69.5951 17.512 69.9071 18.232 70.1951 18.92C70.3551 19.32 70.5151 19.72 70.6751 20.12C70.8511 20.52 71.0191 20.92 71.1791 21.32L67.4591 22.616L66.5951 19.736C66.3551 18.936 66.1311 18.168 65.9231 17.432C65.7311 16.68 65.6191 16.152 65.5871 15.848L65.2751 15.944C65.2271 16.2 65.1711 16.48 65.1071 16.784C65.0591 17.072 65.0031 17.392 64.9391 17.744C64.8751 18.096 64.8111 18.44 64.7471 18.776C64.6831 19.096 64.6191 19.416 64.5551 19.736L64.1231 22.016L60.2351 23.024ZM65.8751 12.608C66.1631 12.576 66.5151 12.456 66.9311 12.248C67.3631 12.024 67.7871 11.752 68.2031 11.432C68.6351 11.112 68.9951 10.784 69.2831 10.448C69.5711 10.112 69.7151 9.816 69.7151 9.56C69.7151 9.24 69.5231 9.032 69.1391 8.936C68.7711 8.824 68.2831 8.768 67.6751 8.768H67.1471C67.0511 8.784 66.9631 8.792 66.8831 8.792C66.8031 8.792 66.7231 8.792 66.6431 8.792L65.8751 12.608ZM70.7311 23.024C70.9711 21.904 71.2031 20.8 71.4271 19.712C71.6511 18.624 71.8671 17.552 72.0751 16.496C72.4111 14.592 72.7391 12.712 73.0591 10.856C73.3791 8.984 73.6111 7.2 73.7551 5.504L75.0031 5.576C75.2271 5.592 75.4431 5.608 75.6511 5.624C75.8751 5.64 76.0911 5.656 76.2991 5.672C76.5391 5.688 76.7791 5.704 77.0191 5.72C77.2591 5.72 77.4991 5.72 77.7391 5.72C77.7071 5.848 77.6511 6.104 77.5711 6.488C77.5071 6.872 77.4351 7.264 77.3551 7.664C77.2911 8.048 77.2431 8.312 77.2111 8.456L76.7791 10.832L76.9231 10.808C77.3871 10.088 77.9231 9.256 78.5311 8.312C79.1391 7.368 79.7071 6.464 80.2351 5.6C81.0351 5.536 81.8351 5.464 82.6351 5.384C83.4351 5.304 84.2351 5.2 85.0351 5.072C84.6671 5.568 84.2991 6.064 83.9311 6.56C83.5631 7.056 83.2031 7.552 82.8511 8.048C82.4831 8.56 82.0831 9.12 81.6511 9.728C81.2191 10.336 80.8031 10.936 80.4031 11.528C80.0191 12.104 79.6991 12.6 79.4431 13.016C79.6191 13.816 79.8111 14.608 80.0191 15.392C80.2271 16.176 80.4511 16.944 80.6911 17.696C80.9311 18.448 81.1711 19.208 81.4111 19.976C81.6511 20.744 81.8991 21.52 82.1551 22.304C81.7871 22.288 81.4111 22.28 81.0271 22.28C80.6431 22.264 80.2671 22.256 79.8991 22.256C79.4351 22.256 78.9871 22.264 78.5551 22.28C78.1231 22.28 77.6751 22.288 77.2111 22.304C77.1471 21.792 77.0751 21.264 76.9951 20.72C76.9151 20.16 76.8351 19.592 76.7551 19.016C76.6751 18.456 76.5951 17.904 76.5151 17.36C76.4351 16.8 76.3551 16.264 76.2751 15.752L75.8431 16.256C75.7311 16.72 75.6111 17.312 75.4831 18.032C75.4191 18.384 75.3471 18.736 75.2671 19.088C75.2031 19.424 75.1391 19.752 75.0751 20.072C75.0111 20.456 74.9391 20.848 74.8591 21.248C74.7791 21.632 74.6991 22.032 74.6191 22.448L70.7311 23.024ZM81.6011 23.024L84.7451 5.96L92.3291 5.312C92.2171 5.664 92.1211 6.024 92.0411 6.392C91.9611 6.696 91.8811 7.016 91.8011 7.352C91.7371 7.672 91.6811 7.96 91.6331 8.216C91.4251 8.232 91.1291 8.248 90.7451 8.264C90.3611 8.264 89.9691 8.272 89.5691 8.288C89.1691 8.288 88.8251 8.288 88.5371 8.288C88.2491 8.288 88.0971 8.288 88.0811 8.288L87.2411 12.584L88.6331 12.512C88.8091 12.496 88.9851 12.488 89.1611 12.488C89.3531 12.488 89.5371 12.488 89.7131 12.488C89.8891 12.488 90.0491 12.488 90.1931 12.488C90.3371 12.488 90.4491 12.48 90.5291 12.464C90.4971 12.688 90.4651 12.912 90.4331 13.136C90.4171 13.344 90.3931 13.56 90.3611 13.784L90.1451 15.104C90.0651 15.12 89.9611 15.128 89.8331 15.128C89.7051 15.128 89.5531 15.128 89.3771 15.128C89.2011 15.144 89.0171 15.152 88.8251 15.152C88.6331 15.152 88.4491 15.16 88.2731 15.176C88.0651 15.192 87.8491 15.2 87.6251 15.2C87.4011 15.2 87.1611 15.208 86.9051 15.224L86.0891 19.64L89.5931 19.088L89.3531 21.824L81.6011 23.024ZM91.5088 23.024C91.6848 22.144 91.8608 21.272 92.0368 20.408C92.2288 19.528 92.4048 18.664 92.5648 17.816C93.1728 14.776 93.6688 11.864 94.0528 9.08C93.8768 9.048 93.6928 9.032 93.5008 9.032C93.3088 9.016 93.1248 9.016 92.9488 9.032C92.5648 9.064 92.1888 9.016 91.8208 8.888C91.8368 8.76 91.8448 8.624 91.8448 8.48C91.8448 8.32 91.8448 8.16 91.8448 8C91.8448 7.824 91.8448 7.656 91.8448 7.496C91.8448 7.32 91.8528 7.152 91.8688 6.992C91.8848 6.816 91.8928 6.632 91.8928 6.44C91.8928 6.232 91.9008 6.024 91.9168 5.816C92.3328 5.848 92.7488 5.872 93.1648 5.888C93.5808 5.904 93.9968 5.912 94.4128 5.912C95.5968 5.912 96.7248 5.872 97.7968 5.792C98.8848 5.712 99.8848 5.616 100.797 5.504L100.533 6.8L100.317 7.928C100.237 8.344 100.165 8.672 100.101 8.912C99.9248 8.96 99.7488 9 99.5728 9.032C99.3968 9.064 99.2208 9.088 99.0448 9.104C98.8688 9.12 98.6848 9.144 98.4928 9.176C98.3168 9.208 98.1408 9.24 97.9648 9.272C97.7248 10.456 97.5248 11.48 97.3648 12.344C97.2208 13.208 97.0848 14.04 96.9568 14.84C96.8448 15.624 96.7088 16.488 96.5488 17.432C96.2768 19.048 96.0368 20.688 95.8288 22.352L91.5088 23.024ZM99.2201 23.216C99.3321 22.096 99.4361 20.984 99.5321 19.88C99.6281 18.776 99.7161 17.688 99.7961 16.616C99.9721 14.664 100.108 12.744 100.204 10.856C100.316 8.968 100.388 7.2 100.42 5.552C101.668 5.552 102.604 5.528 103.228 5.48C103.852 5.416 104.164 5.384 104.164 5.384C104.084 6.312 104.004 7.16 103.924 7.928C103.844 8.68 103.772 9.352 103.708 9.944L103.42 12.848C103.34 13.728 103.268 14.472 103.204 15.08C103.156 15.688 103.108 16.248 103.06 16.76C103.012 17.272 102.948 17.832 102.868 18.44H103.3L105.988 5.672L107.308 5.6C107.516 5.584 107.724 5.576 107.932 5.576C108.14 5.56 108.356 5.544 108.58 5.528C108.804 5.512 109.012 5.496 109.204 5.48C109.412 5.464 109.604 5.448 109.78 5.432C109.476 6.376 109.164 7.432 108.844 8.6C108.54 9.768 108.228 10.976 107.908 12.224C107.604 13.472 107.292 14.704 106.972 15.92C106.716 16.944 106.46 17.992 106.204 19.064C105.948 20.12 105.692 21.192 105.436 22.28L99.2201 23.216ZM106.778 22.976C107.002 22.048 107.226 21 107.45 19.832C107.674 18.648 107.898 17.424 108.122 16.16C108.346 14.896 108.554 13.68 108.746 12.512C108.922 11.488 109.09 10.448 109.25 9.392C109.426 8.336 109.594 7.272 109.754 6.2L113.498 5.6L112.418 11.912C112.178 13.4 111.962 14.736 111.77 15.92C111.594 17.104 111.418 18.224 111.242 19.28C111.082 20.336 110.914 21.416 110.738 22.52C110.434 22.52 110.066 22.544 109.634 22.592C109.202 22.624 108.77 22.672 108.338 22.736C107.906 22.784 107.538 22.832 107.234 22.88C106.946 22.928 106.794 22.96 106.778 22.976ZM111.461 23.024L114.605 5.96L122.189 5.312C122.077 5.664 121.981 6.024 121.901 6.392C121.821 6.696 121.741 7.016 121.661 7.352C121.597 7.672 121.541 7.96 121.493 8.216C121.285 8.232 120.989 8.248 120.605 8.264C120.221 8.264 119.829 8.272 119.429 8.288C119.029 8.288 118.685 8.288 118.397 8.288C118.109 8.288 117.957 8.288 117.941 8.288L117.101 12.584L118.493 12.512C118.669 12.496 118.845 12.488 119.021 12.488C119.213 12.488 119.397 12.488 119.573 12.488C119.749 12.488 119.909 12.488 120.053 12.488C120.197 12.488 120.309 12.48 120.389 12.464C120.357 12.688 120.325 12.912 120.293 13.136C120.277 13.344 120.253 13.56 120.221 13.784L120.005 15.104C119.925 15.12 119.821 15.128 119.693 15.128C119.565 15.128 119.413 15.128 119.237 15.128C119.061 15.144 118.877 15.152 118.685 15.152C118.493 15.152 118.309 15.16 118.133 15.176C117.925 15.192 117.709 15.2 117.485 15.2C117.261 15.2 117.021 15.208 116.765 15.224L115.949 19.64L119.453 19.088L119.213 21.824L111.461 23.024ZM120.193 23.096L122.017 6.056C122.385 6.04 122.745 6.016 123.097 5.984C123.465 5.936 123.817 5.88 124.153 5.816C124.473 5.752 124.801 5.704 125.137 5.672C125.473 5.624 125.801 5.592 126.121 5.576L126.049 6.056C126.033 6.216 126.001 6.4 125.953 6.608C125.921 6.8 125.889 7.024 125.857 7.28C125.777 7.84 125.681 8.48 125.569 9.2C125.457 9.92 125.329 10.72 125.185 11.6C125.089 12.144 124.977 12.8 124.849 13.568C124.737 14.336 124.601 15.208 124.441 16.184H124.801C125.009 15.448 125.201 14.776 125.377 14.168C125.553 13.56 125.705 13.024 125.833 12.56C125.961 12.096 126.081 11.68 126.193 11.312C126.321 10.928 126.425 10.584 126.505 10.28C126.841 9.096 127.113 8.128 127.321 7.376C127.529 6.624 127.665 6.136 127.729 5.912H127.945C128.361 5.912 128.793 5.88 129.241 5.816C129.705 5.752 130.121 5.68 130.489 5.6C130.473 5.664 130.441 5.928 130.393 6.392C130.345 6.856 130.289 7.424 130.225 8.096C130.161 8.768 130.097 9.464 130.033 10.184C129.921 11.544 129.817 12.728 129.721 13.736C129.641 14.744 129.569 15.56 129.505 16.184H129.937L132.217 5.864L133.825 5.648C134.049 5.616 134.281 5.584 134.521 5.552C134.761 5.52 135.009 5.488 135.265 5.456C135.729 5.392 136.169 5.32 136.585 5.24C136.105 6.584 135.625 8.168 135.145 9.992C134.665 11.816 134.185 13.664 133.705 15.536C133.449 16.56 133.193 17.6 132.937 18.656C132.697 19.696 132.457 20.76 132.217 21.848L126.793 22.76L127.849 13.496H127.561L125.185 22.208L120.193 23.096Z" fill="white"/>
</svg>
